<?xml version="1.0" encoding="UTF-8"?>
<svg width="16px" height="16px" viewBox="0 0 16 16" version="1.1" xmlns="http://www.w3.org/2000/svg" xmlns:xlink="http://www.w3.org/1999/xlink">
    <title>icon_tupian备份</title>
    <g id="icon_tupian备份" stroke="none" stroke-width="1" fill="none" fill-rule="evenodd">
        <g id="编组">
            <rect id="Rectangle-4" x="0" y="0" width="16" height="16"></rect>
            <path d="M14,1 C15.0543618,1 15.9181651,1.81587779 15.9945143,2.85073766 L16,3 L16,13 C16,14.0543618 15.1841222,14.9181651 14.1492623,14.9945143 L14,15 L2,15 C0.945638205,15 0.0818348781,14.1841222 0.00548573643,13.1492623 L0,13 L0,3 C0,1.9456382 0.815877791,1.08183488 1.85073766,1.00548574 L2,1 L14,1 Z M6.81592038,9.63463037 L6.62469505,9.78086881 L2.599,13 L14,13 L14.0010711,10.3685915 C12.152648,8.32812618 9.0472418,8.00454403 6.81592038,9.63463037 Z M14,3 L2,3 L2,10.919 L5.37530495,8.21913119 C7.92182859,6.18191228 11.4010267,6.09891553 14.0010632,7.76882583 L14,3 Z M4.14644661,4.14644661 C4.61785113,3.67504209 5.38214887,3.67504209 5.85355339,4.14644661 C6.32495791,4.61785113 6.32495791,5.38214887 5.85355339,5.85355339 C5.38214887,6.32495791 4.61785113,6.32495791 4.14644661,5.85355339 C3.67504209,5.38214887 3.67504209,4.61785113 4.14644661,4.14644661 Z M5.14644661,4.85355339 C5.06556638,4.77267316 4.93443362,4.77267316 4.85355339,4.85355339 C4.77267316,4.93443362 4.77267316,5.06556638 4.85355339,5.14644661 C4.93443362,5.22732684 5.06556638,5.22732684 5.14644661,5.14644661 C5.22732684,5.06556638 5.22732684,4.93443362 5.14644661,4.85355339 Z" id="形状" fill="#555666" fill-rule="nonzero"></path>
        </g>
    </g>
</svg>