<?xml version="1.0" encoding="UTF-8"?>
<svg width="16px" height="16px" viewBox="0 0 16 16" version="1.1" xmlns="http://www.w3.org/2000/svg" xmlns:xlink="http://www.w3.org/1999/xlink">
    <title>icon_qianping备份</title>
    <g id="icon_qianping备份" stroke="none" stroke-width="1" fill="none" fill-rule="evenodd">
        <g id="icon_qianping">
            <rect id="Rectangle-4" x="0" y="0" width="16" height="16"></rect>
            <path d="M6.70710678,9.29289322 C7.06759074,9.65337718 7.09532028,10.2206082 6.79029539,10.6128994 L6.70710678,10.7071068 L4.90751177,12.506 L5.67754748,13.2758222 L5.8065952,13.448476 C5.8688434,13.5367499 5.9003835,13.5973927 5.92261467,13.6820668 L5.94253542,13.7766648 L5.97336963,13.99 L5.86924424,14.3373218 C5.76700847,14.6471538 5.6806057,14.7566228 5.41786174,14.857903 L5.31069142,14.8958746 L4.96336963,15 L1.99751177,15 L1.75174486,14.9279448 L1.56120953,14.8647981 C1.31882175,14.774408 1.22114946,14.6809579 1.13047213,14.4467271 L1.09163716,14.3373218 L0.987511769,13.99 L0.987511769,11.0241421 L1.01834599,10.8108069 C1.03674888,10.7043717 1.05732765,10.6391885 1.10148147,10.5635951 L1.15428621,10.4826182 L1.28333392,10.3099643 L1.54984927,10.1650718 C1.85319267,10.0065957 1.99512868,9.97291947 2.22987394,10.0640433 L2.33690241,10.1107371 L2.366,10.125 L2.3801952,10.0902626 L2.57103733,10.169312 L3.49351177,11.091 L5.29289322,9.29289322 L5.38710056,9.20970461 C5.77939176,8.90467972 6.34662282,8.93240926 6.70710678,9.29289322 Z M10.6128994,9.20970461 L10.7071068,9.29289322 L12.487,11.072 L13.3898441,10.169312 L13.5806862,10.0902626 L13.5948814,10.125 L13.623979,10.1107371 C13.9284936,9.96584464 14.064354,9.9839562 14.4110321,10.1650718 L14.6775475,10.3099643 L14.8065952,10.4826182 C14.8895928,10.6003166 14.9179982,10.6688934 14.9425354,10.8108069 L14.9733696,11.0241421 L14.9733696,13.99 L14.8692442,14.3373218 C14.7646849,14.6541954 14.6766865,14.7614952 14.3996719,14.8647981 L14.2091365,14.9279448 L13.9633696,15 L10.9975118,15 L10.65019,14.8958746 C10.301629,14.7808594 10.2066524,14.6858828 10.0916372,14.3373218 L9.98751177,13.99 L10.018346,13.7766648 C10.0428832,13.6347512 10.0712886,13.5661745 10.1542862,13.448476 L10.2833339,13.2758222 L11.072,12.487 L9.29289322,10.7071068 C8.90236893,10.3165825 8.90236893,9.68341751 9.29289322,9.29289322 C9.65337718,8.93240926 10.2206082,8.90467972 10.6128994,9.20970461 Z M13.9633696,1.01414214 L14.2091365,1.08619733 L14.3996719,1.14934407 C14.6420597,1.23973412 14.7397319,1.33318424 14.8304093,1.567415 L14.8692442,1.67682035 L14.9733696,2.02414214 L14.9733696,4.99 L14.9425354,5.20333524 C14.9241325,5.3097704 14.9035537,5.3749536 14.8593999,5.45054704 L14.8065952,5.53152397 L14.6775475,5.70417785 L14.4110321,5.84907033 C14.1076887,6.00754648 13.9657527,6.04122267 13.7310075,5.95009888 L13.5948814,5.88914214 L13.5806862,5.92387953 L13.3898441,5.84483013 L12.479,4.93414214 L10.7071068,6.70710678 L10.6128994,6.79029539 C10.2206082,7.09532028 9.65337718,7.06759074 9.29289322,6.70710678 C8.93240926,6.34662282 8.90467972,5.77939176 9.20970461,5.38710056 L9.29289322,5.29289322 L11.065,3.52014214 L10.2833339,2.73831998 L10.1542862,2.5656661 C10.092038,2.47739227 10.0604979,2.4167494 10.0382667,2.3320753 L10.018346,2.23747738 L9.98751177,2.02414214 L10.0916372,1.67682035 C10.1938729,1.36698836 10.2802757,1.25751935 10.5430197,1.15623911 L10.65019,1.11826753 L10.9975118,1.01414214 L13.9633696,1.01414214 Z M4.96336963,1.01414214 L5.31069142,1.11826753 C5.6592524,1.23328277 5.754229,1.32825937 5.86924424,1.67682035 L5.97336963,2.02414214 L5.94253542,2.23747738 C5.91799822,2.37939092 5.8895928,2.44796766 5.8065952,2.5656661 L5.67754748,2.73831998 L4.91451177,3.50014214 L6.70710678,5.29289322 C7.09763107,5.68341751 7.09763107,6.31658249 6.70710678,6.70710678 C6.34662282,7.06759074 5.77939176,7.09532028 5.38710056,6.79029539 L5.29289322,6.70710678 L3.50051177,4.91414214 L2.57103733,5.84483013 L2.3801952,5.92387953 L2.366,5.88914214 L2.33690241,5.90340501 C2.0323878,6.04829749 1.89652744,6.03018593 1.54984927,5.84907033 L1.28333392,5.70417785 L1.15428621,5.53152397 C1.0712886,5.41382553 1.04288318,5.34524878 1.01834599,5.20333524 L0.987511769,4.99 L0.987511769,2.02414214 L1.09163716,1.67682035 C1.19619647,1.35994673 1.28419492,1.25264698 1.56120953,1.14934407 L1.75174486,1.08619733 L1.99751177,1.01414214 L4.96336963,1.01414214 Z" id="形状" fill="#555666" fill-rule="nonzero"></path>
        </g>
    </g>
</svg>