<?xml version="1.0" encoding="UTF-8"?>
<svg width="16px" height="16px" viewBox="0 0 16 16" version="1.1" xmlns="http://www.w3.org/2000/svg" xmlns:xlink="http://www.w3.org/1999/xlink">
    <title>icon_shouqiquanping备份</title>
    <g id="icon_shouqiquanping备份" stroke="none" stroke-width="1" fill="none" fill-rule="evenodd">
        <g id="icon_shouqiquanping">
            <rect id="Rectangle-4" x="0" y="0" width="16" height="16"></rect>
            <path d="M4.96336963,10.0141421 L5.20913654,10.0861973 L5.39967187,10.1493441 C5.64205966,10.2397341 5.73973194,10.3331842 5.83040927,10.567415 L5.86924424,10.6768203 L5.97336963,11.0241421 L5.97336963,13.99 L5.94253542,14.2033352 C5.92413252,14.3097704 5.90355375,14.3749536 5.85939993,14.450547 L5.8065952,14.531524 L5.67754748,14.7041778 L5.41103213,14.8490703 C5.10768874,15.0075465 4.96575272,15.0412227 4.73100746,14.9500989 L4.5948814,14.8891421 L4.5806862,14.9238795 L4.38984407,14.8448301 L3.48,13.935 L1.70710678,15.7071068 L1.61289944,15.7902954 C1.22060824,16.0953203 0.65337718,16.0675907 0.292893219,15.7071068 C-0.0675907428,15.3466228 -0.0953202783,14.7793918 0.209704612,14.3871006 L0.292893219,14.2928932 L2.065,12.52 L1.28333392,11.73832 L1.15428621,11.5656661 C1.092038,11.4773923 1.0604979,11.4167494 1.03826674,11.3320753 L1.01834599,11.2374774 L0.987511769,11.0241421 L1.09163716,10.6768203 C1.19387293,10.3669884 1.2802757,10.2575194 1.54301966,10.1562391 L1.65018998,10.1182675 L1.99751177,10.0141421 L4.96336963,10.0141421 Z M13.9633696,10.0141421 L14.3106914,10.1182675 C14.6592524,10.2332828 14.754229,10.3282594 14.8692442,10.6768203 L14.9733696,11.0241421 L14.9425354,11.2374774 C14.9179982,11.3793909 14.8895928,11.4479677 14.8065952,11.5656661 L14.6775475,11.73832 L13.915,12.5 L15.7071068,14.2928932 C16.0976311,14.6834175 16.0976311,15.3165825 15.7071068,15.7071068 C15.3466228,16.0675907 14.7793918,16.0953203 14.3871006,15.7902954 L14.2928932,15.7071068 L12.5,13.915 L11.5710373,14.8448301 L11.3801952,14.9238795 L11.366,14.8891421 L11.3369024,14.903405 C11.0323878,15.0482975 10.8965274,15.0301859 10.5498493,14.8490703 L10.2833339,14.7041778 L10.1542862,14.531524 C10.0712886,14.4138255 10.0428832,14.3452488 10.018346,14.2033352 L9.98751177,13.99 L9.98751177,11.0241421 L10.0916372,10.6768203 C10.1961965,10.3599467 10.2841949,10.252647 10.5612095,10.1493441 L10.7517449,10.0861973 L10.9975118,10.0141421 L13.9633696,10.0141421 Z M1.61289944,0.209704612 L1.70710678,0.292893219 L3.487,2.072 L4.38984407,1.169312 L4.5806862,1.0902626 L4.5948814,1.125 L4.62397899,1.11073712 C4.9284936,0.965844642 5.06435396,0.983956202 5.41103213,1.1650718 L5.67754748,1.30996429 L5.8065952,1.48261817 C5.8895928,1.60031661 5.91799822,1.66889336 5.94253542,1.81080689 L5.97336963,2.02414214 L5.97336963,4.99 L5.86924424,5.33732179 C5.76468493,5.65419541 5.67668648,5.76149515 5.39967187,5.86479806 L5.20913654,5.9279448 L4.96336963,6 L1.99751177,6 L1.65018998,5.89587461 C1.301629,5.78085936 1.20665241,5.68588277 1.09163716,5.33732179 L0.987511769,4.99 L1.01834599,4.77666476 C1.04288318,4.63475122 1.0712886,4.56617447 1.15428621,4.44847603 L1.28333392,4.27582215 L2.072,3.487 L0.292893219,1.70710678 C-0.0976310729,1.31658249 -0.0976310729,0.683417511 0.292893219,0.292893219 C0.65337718,-0.0675907428 1.22060824,-0.0953202783 1.61289944,0.209704612 Z M14.3871006,0.209704612 C14.7793918,-0.0953202783 15.3466228,-0.0675907428 15.7071068,0.292893219 C16.0675907,0.65337718 16.0953203,1.22060824 15.7902954,1.61289944 L15.7071068,1.70710678 L13.908,3.506 L14.6775475,4.27582215 L14.8065952,4.44847603 C14.8688434,4.53674986 14.9003835,4.59739274 14.9226147,4.68206684 L14.9425354,4.77666476 L14.9733696,4.99 L14.8692442,5.33732179 C14.7670085,5.64715377 14.6806057,5.75662278 14.4178617,5.85790302 L14.3106914,5.89587461 L13.9633696,6 L10.9975118,6 L10.7517449,5.9279448 L10.5612095,5.86479806 C10.3188217,5.77440802 10.2211495,5.68095789 10.1304721,5.44672714 L10.0916372,5.33732179 L9.98751177,4.99 L9.98751177,2.02414214 L10.018346,1.81080689 C10.0367489,1.70437174 10.0573277,1.63918853 10.1014815,1.56359509 L10.1542862,1.48261817 L10.2833339,1.30996429 L10.5498493,1.1650718 C10.8531927,1.00659565 10.9951287,0.97291947 11.2298739,1.06404326 L11.3369024,1.11073712 L11.366,1.125 L11.3801952,1.0902626 L11.5710373,1.169312 L12.493,2.091 L14.2928932,0.292893219 L14.3871006,0.209704612 Z" id="形状" fill="#555666" fill-rule="nonzero"></path>
        </g>
    </g>
</svg>