<?xml version="1.0" encoding="UTF-8"?>
<svg width="16px" height="16px" viewBox="0 0 16 16" version="1.1" xmlns="http://www.w3.org/2000/svg" xmlns:xlink="http://www.w3.org/1999/xlink">
    <title>icon_tubiao备份</title>
    <g id="icon_tubiao备份" stroke="none" stroke-width="1" fill="none" fill-rule="evenodd">
        <g id="icon_tubiao">
            <rect id="Rectangle-4" x="0" y="0" width="16" height="16"></rect>
            <path d="M6,3 C6.51283584,3 6.93550716,3.38604019 6.99327227,3.88337887 L7,4 L7,14 C7,14.5522847 6.55228475,15 6,15 C5.48716416,15 5.06449284,14.6139598 5.00672773,14.1166211 L5,14 L5,4 C5,3.44771525 5.44771525,3 6,3 Z M10,6 C10.5128358,6 10.9355072,6.38604019 10.9932723,6.88337887 L11,7 L11,14 C11,14.5522847 10.5522847,15 10,15 C9.48716416,15 9.06449284,14.6139598 9.00672773,14.1166211 L9,14 L9,7 C9,6.44771525 9.44771525,6 10,6 Z M14,1 C14.5128358,1 14.9355072,1.38604019 14.9932723,1.88337887 L15,2 L15,14 C15,14.5522847 14.5522847,15 14,15 C13.4871642,15 13.0644928,14.6139598 13.0067277,14.1166211 L13,14 L13,2 C13,1.44771525 13.4477153,1 14,1 Z M2,8 C2.51283584,8 2.93550716,8.38604019 2.99327227,8.88337887 L3,9 L3,14 C3,14.5522847 2.55228475,15 2,15 C1.48716416,15 1.06449284,14.6139598 1.00672773,14.1166211 L1,14 L1,9 C1,8.44771525 1.44771525,8 2,8 Z" id="形状" fill="#555666" fill-rule="nonzero"></path>
        </g>
    </g>
</svg>