<?xml version="1.0" encoding="UTF-8"?>
<svg width="16px" height="16px" viewBox="0 0 16 16" version="1.1" xmlns="http://www.w3.org/2000/svg" xmlns:xlink="http://www.w3.org/1999/xlink">
    <title>icon_mulu备份</title>
    <g id="icon_mulu备份" stroke="none" stroke-width="1" fill="none" fill-rule="evenodd">
        <g id="icon_mulu">
            <rect id="Rectangle-4" x="0" y="0" width="16" height="16"></rect>
            <path d="M1,0 C1.51283584,0 1.93550716,0.38604019 1.99327227,0.883378875 L2,1 L3,1 C3.55228475,1 4,1.44771525 4,2 C4,2.51283584 3.61395981,2.93550716 3.11662113,2.99327227 L3,3 L2,3 L2,7 L3,7 C3.55228475,7 4,7.44771525 4,8 C4,8.51283584 3.61395981,8.93550716 3.11662113,8.99327227 L3,9 L2,9 L2,13 L3,13 C3.55228475,13 4,13.4477153 4,14 C4,14.5128358 3.61395981,14.9355072 3.11662113,14.9932723 L3,15 L2,15 C2,15.5522847 1.55228475,16 1,16 C0.487164161,16 0.0644928393,15.6139598 0.00672773133,15.1166211 L0,15 L0,1 C0,0.44771525 0.44771525,0 1,0 Z M15,13 C15.5522847,13 16,13.4477153 16,14 C16,14.5128358 15.6139598,14.9355072 15.1166211,14.9932723 L15,15 L6,15 C5.44771525,15 5,14.5522847 5,14 C5,13.4871642 5.38604019,13.0644928 5.88337887,13.0067277 L6,13 L15,13 Z M15,7 C15.5522847,7 16,7.44771525 16,8 C16,8.51283584 15.6139598,8.93550716 15.1166211,8.99327227 L15,9 L6,9 C5.44771525,9 5,8.55228475 5,8 C5,7.48716416 5.38604019,7.06449284 5.88337887,7.00672773 L6,7 L15,7 Z M15,1 C15.5522847,1 16,1.44771525 16,2 C16,2.51283584 15.6139598,2.93550716 15.1166211,2.99327227 L15,3 L6,3 C5.44771525,3 5,2.55228475 5,2 C5,1.48716416 5.38604019,1.06449284 5.88337887,1.00672773 L6,1 L15,1 Z" id="形状" fill="#555666" fill-rule="nonzero"></path>
        </g>
    </g>
</svg>