<?xml version="1.0" encoding="UTF-8"?>
<svg width="16px" height="16px" viewBox="0 0 16 16" version="1.1" xmlns="http://www.w3.org/2000/svg" xmlns:xlink="http://www.w3.org/1999/xlink">
    <title>icon_chexiao备份</title>
    <g id="icon_chexiao备份" stroke="none" stroke-width="1" fill="none" fill-rule="evenodd">
        <g id="icon_chexiao">
            <rect id="Rectangle-4" x="0" y="0" width="16" height="16"></rect>
            <path d="M8,0 C12.418278,0 16,3.581722 16,8 C16,12.418278 12.418278,16 8,16 C5.1523307,16 2.56344853,14.4989583 1.12920207,12.0999117 C0.845807086,11.6258804 1.0003484,11.011865 1.47437975,10.72847 C1.94841111,10.445075 2.56242648,10.5996163 2.84582146,11.0736477 C3.92261856,12.8747931 5.86328959,14 8,14 C11.3137085,14 14,11.3137085 14,8 C14,4.6862915 11.3137085,2 8,2 C6.38223657,2 4.87067556,2.64284881 3.75699659,3.75756668 L4.29289322,4.29289322 C4.4804296,4.4804296 4.58578644,4.73478351 4.58578644,5 C4.58578644,5.51283584 4.19974625,5.93550716 3.70240756,5.99327227 L3.58578644,6 L1,6 C0.487164161,6 0.0644928393,5.61395981 0.00672773133,5.11662113 L0,5 L0,2.41421356 C0,2.14899707 0.10535684,1.89464316 0.292893219,1.70710678 C0.65337718,1.34662282 1.22060824,1.31889328 1.61289944,1.62391817 L1.70710678,1.70710678 L2.34344854,2.34268774 C3.82728745,0.858162245 5.84493736,0 8,0 Z" id="路径" fill="#555666" fill-rule="nonzero"></path>
        </g>
    </g>
</svg>