<?xml version="1.0" encoding="UTF-8"?>
<svg width="16px" height="16px" viewBox="0 0 16 16" version="1.1" xmlns="http://www.w3.org/2000/svg" xmlns:xlink="http://www.w3.org/1999/xlink">
    <title>icon_duiqi_liangduanduiqi备份</title>
    <g id="icon_duiqi_liangduanduiqi备份" stroke="none" stroke-width="1" fill="none" fill-rule="evenodd">
        <g id="icon_duiqi_liangduanduiqi">
            <rect id="Rectangle-4" x="0" y="0" width="16" height="16"></rect>
            <path d="M15,13 C15.5522847,13 16,13.4477153 16,14 C16,14.5128358 15.6139598,14.9355072 15.1166211,14.9932723 L15,15 L1,15 C0.44771525,15 0,14.5522847 0,14 C0,13.4871642 0.38604019,13.0644928 0.883378875,13.0067277 L1,13 L15,13 Z M15,9 C15.5522847,9 16,9.44771525 16,10 C16,10.5128358 15.6139598,10.9355072 15.1166211,10.9932723 L15,11 L1,11 C0.44771525,11 0,10.5522847 0,10 C0,9.48716416 0.38604019,9.06449284 0.883378875,9.00672773 L1,9 L15,9 Z M15,5 C15.5522847,5 16,5.44771525 16,6 C16,6.51283584 15.6139598,6.93550716 15.1166211,6.99327227 L15,7 L1,7 C0.44771525,7 0,6.55228475 0,6 C0,5.48716416 0.38604019,5.06449284 0.883378875,5.00672773 L1,5 L15,5 Z M15,1 C15.5522847,1 16,1.44771525 16,2 C16,2.51283584 15.6139598,2.93550716 15.1166211,2.99327227 L15,3 L1,3 C0.44771525,3 0,2.55228475 0,2 C0,1.48716416 0.38604019,1.06449284 0.883378875,1.00672773 L1,1 L15,1 Z" id="形状结合" fill="#555666" fill-rule="nonzero"></path>
        </g>
    </g>
</svg>