<?xml version="1.0" encoding="UTF-8"?>
<svg width="16px" height="16px" viewBox="0 0 16 16" version="1.1" xmlns="http://www.w3.org/2000/svg" xmlns:xlink="http://www.w3.org/1999/xlink">
    <title>icon_shuipingxian备份</title>
    <g id="icon_shuipingxian备份" stroke="none" stroke-width="1" fill="none" fill-rule="evenodd">
        <g id="icon_shuipingxian">
            <rect id="Rectangle-4" x="0" y="0" width="16" height="16"></rect>
            <path d="M15,13 C15.5522847,13 16,13.4477153 16,14 C16,14.5128358 15.6139598,14.9355072 15.1166211,14.9932723 L15,15 L1,15 C0.44771525,15 0,14.5522847 0,14 C0,13.4871642 0.38604019,13.0644928 0.883378875,13.0067277 L1,13 L15,13 Z M3,7 C3.55228475,7 4,7.44771525 4,8 C4,8.51283584 3.61395981,8.93550716 3.11662113,8.99327227 L3,9 L1,9 C0.44771525,9 0,8.55228475 0,8 C0,7.48716416 0.38604019,7.06449284 0.883378875,7.00672773 L1,7 L3,7 Z M10,7 C10.5522847,7 11,7.44771525 11,8 C11,8.51283584 10.6139598,8.93550716 10.1166211,8.99327227 L10,9 L6,9 C5.44771525,9 5,8.55228475 5,8 C5,7.48716416 5.38604019,7.06449284 5.88337887,7.00672773 L6,7 L10,7 Z M15,7 C15.5522847,7 16,7.44771525 16,8 C16,8.51283584 15.6139598,8.93550716 15.1166211,8.99327227 L15,9 L13,9 C12.4477153,9 12,8.55228475 12,8 C12,7.48716416 12.3860402,7.06449284 12.8833789,7.00672773 L13,7 L15,7 Z M15,1 C15.5522847,1 16,1.44771525 16,2 C16,2.51283584 15.6139598,2.93550716 15.1166211,2.99327227 L15,3 L1,3 C0.44771525,3 0,2.55228475 0,2 C0,1.48716416 0.38604019,1.06449284 0.883378875,1.00672773 L1,1 L15,1 Z" id="形状结合" fill="#555666" fill-rule="nonzero"></path>
        </g>
    </g>
</svg>