<?xml version="1.0" encoding="UTF-8"?>
<svg width="16px" height="16px" viewBox="0 0 16 16" version="1.1" xmlns="http://www.w3.org/2000/svg" xmlns:xlink="http://www.w3.org/1999/xlink">
    <title>icon_wuxu备份</title>
    <g id="icon_wuxu备份" stroke="none" stroke-width="1" fill="none" fill-rule="evenodd">
        <g id="icon_wuxu">
            <rect id="Rectangle-4" x="0" y="0" width="16" height="16"></rect>
            <path d="M15,13 C15.5522847,13 16,13.4477153 16,14 C16,14.5128358 15.6139598,14.9355072 15.1166211,14.9932723 L15,15 L5,15 C4.44771525,15 4,14.5522847 4,14 C4,13.4871642 4.38604019,13.0644928 4.88337887,13.0067277 L5,13 L15,13 Z M2,13 C2.55228475,13 3,13.4477153 3,14 C3,14.5128358 2.61395981,14.9355072 2.11662113,14.9932723 L2,15 L1,15 C0.44771525,15 0,14.5522847 0,14 C0,13.4871642 0.38604019,13.0644928 0.883378875,13.0067277 L1,13 L2,13 Z M15,7 C15.5522847,7 16,7.44771525 16,8 C16,8.51283584 15.6139598,8.93550716 15.1166211,8.99327227 L15,9 L5,9 C4.44771525,9 4,8.55228475 4,8 C4,7.48716416 4.38604019,7.06449284 4.88337887,7.00672773 L5,7 L15,7 Z M2,7 C2.55228475,7 3,7.44771525 3,8 C3,8.51283584 2.61395981,8.93550716 2.11662113,8.99327227 L2,9 L1,9 C0.44771525,9 0,8.55228475 0,8 C0,7.48716416 0.38604019,7.06449284 0.883378875,7.00672773 L1,7 L2,7 Z M15,1 C15.5522847,1 16,1.44771525 16,2 C16,2.51283584 15.6139598,2.93550716 15.1166211,2.99327227 L15,3 L5,3 C4.44771525,3 4,2.55228475 4,2 C4,1.48716416 4.38604019,1.06449284 4.88337887,1.00672773 L5,1 L15,1 Z M2,1 C2.55228475,1 3,1.44771525 3,2 C3,2.51283584 2.61395981,2.93550716 2.11662113,2.99327227 L2,3 L1,3 C0.44771525,3 0,2.55228475 0,2 C0,1.48716416 0.38604019,1.06449284 0.883378875,1.00672773 L1,1 L2,1 Z" id="形状结合" fill="#555666" fill-rule="nonzero"></path>
        </g>
    </g>
</svg>