<?xml version="1.0" encoding="UTF-8"?>
<svg width="16px" height="16px" viewBox="0 0 16 16" version="1.1" xmlns="http://www.w3.org/2000/svg" xmlns:xlink="http://www.w3.org/1999/xlink">
    <title>icon_youxu备份</title>
    <g id="icon_youxu备份" stroke="none" stroke-width="1" fill="none" fill-rule="evenodd">
        <g id="icon_youxu">
            <rect id="Rectangle-4" x="0" y="0" width="16" height="16"></rect>
            <path d="M15,13 C15.5522848,13 16,13.4477153 16,14 C16,14.5128358 15.6139598,14.9355072 15.1166211,14.9932723 L15,15 L5,15 C4.44771525,15 4,14.5522847 4,14 C4,13.4871642 4.38604019,13.0644928 4.88337887,13.0067277 L5,13 L15,13 Z M15,7 C15.5522848,7 16,7.44771525 16,8 C16,8.51283584 15.6139598,8.93550716 15.1166211,8.99327227 L15,9 L5,9 C4.44771525,9 4,8.55228475 4,8 C4,7.48716416 4.38604019,7.06449284 4.88337887,7.00672773 L5,7 L15,7 Z M15,1 C15.5522848,1 16,1.44771525 16,2 C16,2.51283584 15.6139598,2.93550716 15.1166211,2.99327227 L15,3 L5,3 C4.44771525,3 4,2.55228475 4,2 C4,1.48716416 4.38604019,1.06449284 4.88337887,1.00672773 L5,1 L15,1 Z M1,0 L3,0 L3,1 L1,1 L1,0 Z M1,5 L3,5 L3,6 L1,6 L1,5 Z M1,11 L3,11 L3,12 L1,12 L1,11 Z M1,13 L3,13 L3,14 L1,14 L1,13 Z M1,15 L3,15 L3,16 L1,16 L1,15 Z M1.5,9 L3,9 L3,9 L3,10 L1.5,10 C1.22385763,10 1,9.77614237 1,9.5 C1,9.22385763 1.22385763,9 1.5,9 Z M1.5,7 L3,7 L3,7 L3,8 L1.5,8 C1.22385763,8 1,7.77614237 1,7.5 C1,7.22385763 1.22385763,7 1.5,7 Z M2,0 L3,0 L3,4 L2,4 L2,0 Z M2,5 L3,5 L3,8 L2,8 L2,5 Z M2,11 L3,11 L3,14 L2,14 L2,11 Z M2,13 L3,13 L3,16 L2,16 L2,13 Z M1.5,7 L2,7 L2,7 L2,10 L1,10 L1,7.5 C1,7.22385763 1.22385763,7 1.5,7 Z" id="形状结合" fill="#555666" fill-rule="nonzero"></path>
        </g>
    </g>
</svg>