<?xml version="1.0" encoding="UTF-8"?>
<svg width="16px" height="16px" viewBox="0 0 16 16" version="1.1" xmlns="http://www.w3.org/2000/svg" xmlns:xlink="http://www.w3.org/1999/xlink">
    <title>icon_suojin备份</title>
    <g id="icon_suojin备份" stroke="none" stroke-width="1" fill="none" fill-rule="evenodd">
        <g id="icon_suojin">
            <rect id="Rectangle-4" x="0" y="0" width="16" height="16"></rect>
            <path d="M15,13 C15.5522847,13 16,13.4477153 16,14 C16,14.5128358 15.6139598,14.9355072 15.1166211,14.9932723 L15,15 L1,15 C0.44771525,15 0,14.5522847 0,14 C0,13.4871642 0.38604019,13.0644928 0.883378875,13.0067277 L1,13 L15,13 Z M15,9 C15.5522847,9 16,9.44771525 16,10 C16,10.5128358 15.6139598,10.9355072 15.1166211,10.9932723 L15,11 L1,11 C0.44771525,11 0,10.5522847 0,10 C0,9.48716416 0.38604019,9.06449284 0.883378875,9.00672773 L1,9 L15,9 Z M15,5 C15.5522847,5 16,5.44771525 16,6 C16,6.51283584 15.6139598,6.93550716 15.1166211,6.99327227 L15,7 L8,7 C7.44771525,7 7,6.55228475 7,6 C7,5.48716416 7.38604019,5.06449284 7.88337887,5.00672773 L8,5 L15,5 Z M2.52187726,1.2274797 L2.62469505,1.29975604 L5.02391399,3.21913119 C5.08157869,3.26526295 5.13395599,3.31764025 5.18008775,3.37530495 C5.4985581,3.77339289 5.46347785,4.34021683 5.11699725,4.69642431 L5.02391399,4.78086881 L2.62469505,6.70024396 C2.447382,6.8420944 2.2270715,6.91937515 2,6.91937515 C1.48716416,6.91937515 1.06449284,6.53333496 1.00672773,6.03599628 L1,5.91937515 L1,2.08062485 C1,1.85355335 1.07728075,1.63324285 1.21913119,1.4559298 C1.53760154,1.05784186 2.09830105,0.967641734 2.52187726,1.2274797 Z M15,1 C15.5522847,1 16,1.44771525 16,2 C16,2.51283584 15.6139598,2.93550716 15.1166211,2.99327227 L15,3 L8,3 C7.44771525,3 7,2.55228475 7,2 C7,1.48716416 7.38604019,1.06449284 7.88337887,1.00672773 L8,1 L15,1 Z" id="形状结合" fill="#555666" fill-rule="nonzero"></path>
        </g>
    </g>
</svg>