<?xml version="1.0" encoding="UTF-8"?>
<svg width="16px" height="16px" viewBox="0 0 16 16" version="1.1" xmlns="http://www.w3.org/2000/svg" xmlns:xlink="http://www.w3.org/1999/xlink">
    <title>icon_jiacu备份 2</title>
    <g id="icon_jiacu备份-2" stroke="none" stroke-width="1" fill="none" fill-rule="evenodd">
        <g id="icon_jiacu">
            <rect id="Rectangle-4" x="0" y="0" width="16" height="16"></rect>
            <path d="M7.5,0 C9.98528137,0 12,2.01471863 12,4.5 C12,5.70489708 11.5264529,6.79919131 10.7553189,7.60692255 C12.0973086,8.38371831 13,9.83644172 13,11.5 C13,13.9142733 11.0987635,15.8844891 8.7118357,15.995102 L8.5,16 L4,16 C3.48716416,16 3.06449284,15.6139598 3.00672773,15.1166211 L3,15 L3,1 C3,0.44771525 3.44771525,0 4,0 L7.5,0 Z M5,14 L8.5,14 C9.88071187,14 11,12.8807119 11,11.5 C11,10.1745166 9.96846406,9.08996133 8.66437569,9.00531768 L8.5,9 L5,9 L5,14 Z M7.5,2 L5,2 L5,7 L7.5,7 C8.88071187,7 10,5.88071187 10,4.5 C10,3.1745166 8.96846406,2.08996133 7.66437569,2.00531768 L7.5,2 Z" id="形状" fill="#555666" fill-rule="nonzero"></path>
        </g>
    </g>
</svg>