<?xml version="1.0" encoding="UTF-8"?>
<svg width="16px" height="16px" viewBox="0 0 16 16" version="1.1" xmlns="http://www.w3.org/2000/svg" xmlns:xlink="http://www.w3.org/1999/xlink">
    <title>icon_jiacu备份</title>
    <g id="icon_jiacu备份" stroke="none" stroke-width="1" fill="none" fill-rule="evenodd">
        <g id="icon_jiacu">
            <rect id="Rectangle-4" x="0" y="0" width="16" height="16"></rect>
            <path d="M8.5,0 C10.9852814,0 13,2.01471863 13,4.5 C13,5.91396264 12.3478626,7.17561041 11.327954,8.00057695 C12.3477843,8.82423813 13,10.0859525 13,11.5 C13,13.9142733 11.0987635,15.8844891 8.7118357,15.995102 L8.5,16 L4,16 C3.48716416,16 3.06449284,15.6139598 3.00672773,15.1166211 L3,15 L3,1 C3,0.44771525 3.44771525,0 4,0 L8.5,0 Z M5,14 L8.5,14 C9.88071187,14 11,12.8807119 11,11.5 C11,10.1745166 9.96846406,9.08996133 8.66437569,9.00531768 L8.5,9 L5,9 L5,14 Z M8.5,2 L5,2 L5,7 L8.5,7 C9.88071187,7 11,5.88071187 11,4.5 C11,3.1745166 9.96846406,2.08996133 8.66437569,2.00531768 L8.5,2 Z" id="形状" fill="#555666" fill-rule="nonzero"></path>
        </g>
    </g>
</svg>