<?xml version="1.0" encoding="UTF-8"?>
<svg width="16px" height="16px" viewBox="0 0 16 16" version="1.1" xmlns="http://www.w3.org/2000/svg" xmlns:xlink="http://www.w3.org/1999/xlink">
    <title>icon_h1备份</title>
    <g id="icon_h1备份" stroke="none" stroke-width="1" fill="none" fill-rule="evenodd">
        <g id="icon_h1">
            <rect id="Rectangle-4" x="0" y="0" width="16" height="16"></rect>
            <path d="M10,0 C10.5128358,0 10.9355072,0.38604019 10.9932723,0.883378875 L11,1 L11,15 C11,15.5522847 10.5522847,16 10,16 C9.48716416,16 9.06449284,15.6139598 9.00672773,15.1166211 L9,15 L9,9 L3,9 L3,15 C3,15.5522847 2.55228475,16 2,16 C1.48716416,16 1.06449284,15.6139598 1.00672773,15.1166211 L1,15 L1,1 C1,0.44771525 1.44771525,0 2,0 C2.51283584,0 2.93550716,0.38604019 2.99327227,0.883378875 L3,1 L3,7 L9,7 L9,1 C9,0.44771525 9.44771525,0 10,0 Z M15,7 L15,15 C15,15.5522847 14.5522847,16 14,16 C13.4871642,16 13.0644928,15.6139598 13.0067277,15.1166211 L13,15 L13,9 C12.4477153,9 12,8.55228475 12,8 C12,7.48716416 12.3860402,7.06449284 12.8833789,7.00672773 L13,7 L15,7 Z" id="形状" fill="#555666" fill-rule="nonzero"></path>
        </g>
    </g>
</svg>