<?xml version="1.0" encoding="UTF-8"?>
<svg width="16px" height="16px" viewBox="0 0 16 16" version="1.1" xmlns="http://www.w3.org/2000/svg" xmlns:xlink="http://www.w3.org/1999/xlink">
    <title>icon_h3备份</title>
    <g id="icon_h3备份" stroke="none" stroke-width="1" fill="none" fill-rule="evenodd">
        <g id="icon_h3">
            <rect id="Rectangle-4" x="0" y="0" width="16" height="16"></rect>
            <path d="M10,0 C10.5128358,0 10.9355072,0.38604019 10.9932723,0.883378875 L11,1 L11,15 C11,15.5522847 10.5522847,16 10,16 C9.48716416,16 9.06449284,15.6139598 9.00672773,15.1166211 L9,15 L9,9 L3,9 L3,15 C3,15.5522847 2.55228475,16 2,16 C1.48716416,16 1.06449284,15.6139598 1.00672773,15.1166211 L1,15 L1,1 C1,0.44771525 1.44771525,0 2,0 C2.51283584,0 2.93550716,0.38604019 2.99327227,0.883378875 L3,1 L3,7 L9,7 L9,1 C9,0.44771525 9.44771525,0 10,0 Z M15,8 L15,11.4142136 L14.415,12 L15,12.5857864 L15,16 L13,16 C12.4477153,16 12,15.5522847 12,15 C12,14.4871642 12.3860402,14.0644928 12.8833789,14.0067277 L13,14 L13,13.415 L12.2928932,12.7071068 C11.9324093,12.3466228 11.9046797,11.7793918 12.2097046,11.3871006 L12.2928932,11.2928932 L13,10.584 L13,10 C12.4871642,10 12.0644928,9.61395981 12.0067277,9.11662113 L12,9 C12,8.48716416 12.3860402,8.06449284 12.8833789,8.00672773 L13,8 L15,8 Z" id="形状" fill="#555666" fill-rule="nonzero"></path>
        </g>
    </g>
</svg>