<?xml version="1.0" encoding="UTF-8"?>
<svg width="16px" height="16px" viewBox="0 0 16 16" version="1.1" xmlns="http://www.w3.org/2000/svg" xmlns:xlink="http://www.w3.org/1999/xlink">
    <title>icon_qingxie备份</title>
    <g id="icon_qingxie备份" stroke="none" stroke-width="1" fill="none" fill-rule="evenodd">
        <g id="icon_qingxie">
            <rect id="Rectangle-4" x="0" y="0" width="16" height="16"></rect>
            <path d="M12,0 C12.5522847,0 13,0.44771525 13,1 C13,1.51283584 12.6139598,1.93550716 12.1166211,1.99327227 L12,2 L9.866,2 L8.152,14 L10,14 C10.5522847,14 11,14.4477153 11,15 C11,15.5128358 10.6139598,15.9355072 10.1166211,15.9932723 L10,16 L4,16 C3.44771525,16 3,15.5522847 3,15 C3,14.4871642 3.38604019,14.0644928 3.88337887,14.0067277 L4,14 L6.133,14 L7.847,2 L6,2 C5.44771525,2 5,1.55228475 5,1 C5,0.487164161 5.38604019,0.0644928393 5.88337887,0.00672773133 L6,0 L12,0 Z" id="路径" fill="#555666" fill-rule="nonzero"></path>
        </g>
    </g>
</svg>