<?xml version="1.0" encoding="UTF-8"?>
<svg width="16px" height="16px" viewBox="0 0 16 16" version="1.1" xmlns="http://www.w3.org/2000/svg" xmlns:xlink="http://www.w3.org/1999/xlink">
    <title>icon_shanchuxian备份</title>
    <g id="icon_shanchuxian备份" stroke="none" stroke-width="1" fill="none" fill-rule="evenodd">
        <g id="icon_shanchuxian">
            <rect id="Rectangle-4" x="0" y="0" width="16" height="16"></rect>
            <path d="M2,9 C1.44771525,9 1,8.55228475 1,8 C1,7.48716416 1.38604019,7.06449284 1.88337887,7.00672773 L2,7 L3.75812038,7.00051661 C3.2792703,6.28536516 3,5.42529612 3,4.5 C3,2.08572667 4.90123652,0.115510911 7.2881643,0.0048979895 L7.5,0 L9,0 C11.209139,0 13,1.790861 13,4 C13,4.55228475 12.5522847,5 12,5 C11.4871642,5 11.0644928,4.61395981 11.0067277,4.11662113 L11,4 C11,2.9456382 10.1841222,2.08183488 9.14926234,2.00548574 L9,2 L7.5,2 C6.11928813,2 5,3.11928813 5,4.5 C5,5.8254834 6.03153594,6.91003867 7.33562431,6.99468232 L7.5,7 L14,7 C14.5522847,7 15,7.44771525 15,8 C15,8.51283584 14.6139598,8.93550716 14.1166211,8.99327227 L14,9 L12.24256,9.00049981 C12.7209942,9.7154497 13,10.5751422 13,11.5 C13,13.9142733 11.0987635,15.8844891 8.7118357,15.995102 L8.5,16 L7,16 C4.790861,16 3,14.209139 3,12 C3,11.4477153 3.44771525,11 4,11 C4.55228475,11 5,11.4477153 5,12 C5,13.0543618 5.81587779,13.9181651 6.85073766,13.9945143 L7,14 L8.5,14 C9.88071187,14 11,12.8807119 11,11.5 C11,10.1745166 9.96846406,9.08996133 8.66437569,9.00531768 L8.5,9 L2,9 Z" id="路径" fill="#555666" fill-rule="nonzero"></path>
        </g>
    </g>
</svg>