<?xml version="1.0" encoding="UTF-8"?>
<svg width="16px" height="16px" viewBox="0 0 16 16" version="1.1" xmlns="http://www.w3.org/2000/svg" xmlns:xlink="http://www.w3.org/1999/xlink">
    <title>icon_xiajiaobiao备份</title>
    <g id="icon_xiajiaobiao备份" stroke="none" stroke-width="1" fill="none" fill-rule="evenodd">
        <g id="icon_xiajiaobiao">
            <rect id="Rectangle-4" opacity="0" x="0" y="0" width="16" height="16"></rect>
            <path d="M16,7 L16,11.4142136 L15,12.414 L15,14 L15.1166211,14.0067277 C15.575703,14.0600494 15.9399506,14.424297 15.9932723,14.8833789 L16,15 C16,15.5128358 15.6139598,15.9355072 15.1166211,15.9932723 L15,16 L13,16 L13,11.5857864 L14,10.584 L14,9 C13.4871642,9 13.0644928,8.61395981 13.0067277,8.11662113 L13,8 C13,7.48716416 13.3860402,7.06449284 13.8833789,7.00672773 L14,7 L16,7 Z M1.61289944,0.209704612 L1.70710678,0.292893219 L6,4.585 L10.2928932,0.292893219 C10.6834175,-0.0976310729 11.3165825,-0.0976310729 11.7071068,0.292893219 C12.0675907,0.65337718 12.0953203,1.22060824 11.7902954,1.61289944 L11.7071068,1.70710678 L7.415,6 L11.7071068,10.2928932 C12.0976311,10.6834175 12.0976311,11.3165825 11.7071068,11.7071068 C11.3466228,12.0675907 10.7793918,12.0953203 10.3871006,11.7902954 L10.2928932,11.7071068 L6,7.415 L1.70710678,11.7071068 C1.31658249,12.0976311 0.683417511,12.0976311 0.292893219,11.7071068 C-0.0675907428,11.3466228 -0.0953202783,10.7793918 0.209704612,10.3871006 L0.292893219,10.2928932 L4.585,6 L0.292893219,1.70710678 C-0.0976310729,1.31658249 -0.0976310729,0.683417511 0.292893219,0.292893219 C0.65337718,-0.0675907428 1.22060824,-0.0953202783 1.61289944,0.209704612 Z" id="形状" fill="#555666" fill-rule="nonzero"></path>
        </g>
    </g>
</svg>