<?xml version="1.0" encoding="UTF-8"?>
<svg width="16px" height="16px" viewBox="0 0 16 16" version="1.1" xmlns="http://www.w3.org/2000/svg" xmlns:xlink="http://www.w3.org/1999/xlink">
    <title>icon_shangjiaobiao备份</title>
    <g id="icon_shangjiaobiao备份" stroke="none" stroke-width="1" fill="none" fill-rule="evenodd">
        <g id="icon_shangjiaobiao">
            <rect id="Rectangle-4" opacity="0" x="0" y="0" width="16" height="16"></rect>
            <path d="M1.61289944,4.20970461 L1.70710678,4.29289322 L6,8.585 L10.2928932,4.29289322 C10.6834175,3.90236893 11.3165825,3.90236893 11.7071068,4.29289322 C12.0675907,4.65337718 12.0953203,5.22060824 11.7902954,5.61289944 L11.7071068,5.70710678 L7.415,10 L11.7071068,14.2928932 C12.0976311,14.6834175 12.0976311,15.3165825 11.7071068,15.7071068 C11.3466228,16.0675907 10.7793918,16.0953203 10.3871006,15.7902954 L10.2928932,15.7071068 L6,11.415 L1.70710678,15.7071068 C1.31658249,16.0976311 0.683417511,16.0976311 0.292893219,15.7071068 C-0.0675907428,15.3466228 -0.0953202783,14.7793918 0.209704612,14.3871006 L0.292893219,14.2928932 L4.585,10 L0.292893219,5.70710678 C-0.0976310729,5.31658249 -0.0976310729,4.68341751 0.292893219,4.29289322 C0.65337718,3.93240926 1.22060824,3.90467972 1.61289944,4.20970461 Z M16,0 L16,4.41421356 L15,5.414 L15,7 L15.1166211,7.00672773 C15.575703,7.06004937 15.9399506,7.42429701 15.9932723,7.88337887 L16,8 C16,8.51283584 15.6139598,8.93550716 15.1166211,8.99327227 L15,9 L13,9 L13,4.58578644 L14,3.584 L14,2 C13.4871642,2 13.0644928,1.61395981 13.0067277,1.11662113 L13,1 C13,0.487164161 13.3860402,0.0644928393 13.8833789,0.00672773133 L14,0 L16,0 Z" id="形状" fill="#555666" fill-rule="nonzero"></path>
        </g>
    </g>
</svg>