<?xml version="1.0" encoding="UTF-8"?>
<svg width="16px" height="16px" viewBox="0 0 16 16" version="1.1" xmlns="http://www.w3.org/2000/svg" xmlns:xlink="http://www.w3.org/1999/xlink">
    <title>icon_xiahuaxian备份</title>
    <g id="icon_xiahuaxian备份" stroke="none" stroke-width="1" fill="none" fill-rule="evenodd">
        <g id="icon_xiahuaxian">
            <rect id="Rectangle-4" x="0" y="0" width="16" height="16"></rect>
            <path d="M13,14 C13.5522847,14 14,14.4477153 14,15 C14,15.5128358 13.6139598,15.9355072 13.1166211,15.9932723 L13,16 L3,16 C2.44771525,16 2,15.5522847 2,15 C2,14.4871642 2.38604019,14.0644928 2.88337887,14.0067277 L3,14 L13,14 Z M12,0 C12.5128358,0 12.9355072,0.38604019 12.9932723,0.883378875 L13,1 L13,8 C13,10.7614237 10.7614237,13 8,13 C5.3112453,13 3.11818189,10.8776933 3.00461951,8.21688962 L3,8 L3,1 C3,0.44771525 3.44771525,0 4,0 C4.51283584,0 4.93550716,0.38604019 4.99327227,0.883378875 L5,1 L5,8 C5,9.65685425 6.34314575,11 8,11 C9.59768088,11 10.9036609,9.75108004 10.9949073,8.17627279 L11,8 L11,1 C11,0.44771525 11.4477153,0 12,0 Z" id="形状结合" fill="#555666" fill-rule="nonzero"></path>
        </g>
    </g>
</svg>