<?xml version="1.0" encoding="UTF-8"?>
<svg width="16px" height="16px" viewBox="0 0 16 16" version="1.1" xmlns="http://www.w3.org/2000/svg" xmlns:xlink="http://www.w3.org/1999/xlink">
    <title>icon_fangda备份</title>
    <g id="icon_fangda备份" stroke="none" stroke-width="1" fill="none" fill-rule="evenodd">
        <g id="编组">
            <rect id="矩形" opacity="0" x="0" y="0" width="16" height="16"></rect>
            <path d="M15,0 C15.5522847,0 16,0.44771525 16,1 L16,14 C16,14.5522847 15.5522847,15 15,15 L1,15 C0.44771525,15 0,14.5522847 0,14 L0,1 C0,0.44771525 0.44771525,0 1,0 L15,0 Z M14,2 L2,2 L2,13 L14,13 L14,2 Z M4.00008274,6.99999995 L4.12552196,7.00776983 C4.58067972,7.06465127 4.94080614,7.42743754 4.99358612,7.88388677 L5.00025522,7.99982756 L5.00025522,8.59399995 L6.29013176,7.2956655 C6.67912496,6.9036161 7.3122851,6.90113856 7.7043345,7.29013176 C8.06622625,7.64920241 8.09617512,8.21632062 7.79268758,8.60980237 L7.70986824,8.7043345 L6.42325522,9.99999995 L7.00051042,9.99999995 L7.1259463,10.0078235 C7.61900748,10.0696559 8.00038528,10.490454 8.00025522,11.0002552 C8.0001243,11.5130911 7.61397625,11.9356639 7.11662284,11.993302 L7,12 L4.20051727,11.9992855 L4.06978006,11.9921266 C3.50873695,11.9308885 3.06423007,11.4838237 3.00698021,10.9221872 L3.00073844,10.8001818 L3.00025522,8.0001725 L3.00802501,7.87473329 C3.06490645,7.41957552 3.42769272,7.0594491 3.88414195,7.00666912 L4.00008274,6.99999995 Z M11.8002212,3 L11.9309584,3.00715891 C12.4920015,3.06839708 12.9365084,3.51546189 12.9937582,4.0770983 L12.9999999,4.19910375 L13.0004832,6.99911304 L12.9927134,7.12455226 C12.935832,7.57971002 12.5730457,7.93983644 12.1165965,7.99261642 L12.0006557,7.99928554 L11.8752165,7.99151571 C11.4200587,7.93463427 11.0599323,7.571848 11.0071523,7.11539878 L11.0004832,6.99945798 L10.9999999,6.42928551 L9.7028201,7.71136763 C9.30994261,8.09952445 8.6767892,8.0956976 8.28863237,7.7028201 C7.93033376,7.34016396 7.90603309,6.77277567 8.21342342,6.3823352 L8.2971799,6.28863237 L9.60199989,4.99828551 L9.00022802,4.99928554 L8.87479214,4.99146205 C8.38173096,4.92962961 8.00035316,4.50883159 8.00048327,3.9990303 C8.00061415,3.48619448 8.38676219,3.06362169 8.88411561,3.00598351 L9.00073844,2.99928554 L11.8002212,3 Z" id="形状结合" fill="#555666" fill-rule="nonzero"></path>
        </g>
    </g>
</svg>