<?xml version="1.0" encoding="UTF-8"?>
<svg width="16px" height="16px" viewBox="0 0 16 16" version="1.1" xmlns="http://www.w3.org/2000/svg" xmlns:xlink="http://www.w3.org/1999/xlink">
    <title>icon_suoxiao备份</title>
    <g id="icon_suoxiao备份" stroke="none" stroke-width="1" fill="none" fill-rule="evenodd">
        <g id="icon_suoxiao">
            <rect id="矩形" opacity="0" x="0" y="0" width="16" height="16"></rect>
            <path d="M15,0 C15.5522847,0 16,0.44771525 16,1 L16,14 C16,14.5522847 15.5522847,15 15,15 L1,15 C0.44771525,15 0,14.5522847 0,14 L0,1 C0,0.44771525 0.44771525,0 1,0 L15,0 Z M14,2 L2,2 L2,13 L14,13 L14,2 Z M4.0001725,6.9995169 L6.80018179,7.00000011 C7.41798875,7.00058533 7.92651431,7.46792411 7.99212663,8.06904174 L7.99928554,8.19977894 L8.00000008,10.9992617 C8.00014095,11.5515464 7.55253997,11.9993759 7.00025524,11.9995169 C6.49045395,11.999647 6.06965594,11.6182692 6.0078235,11.125208 L6.00000005,10.9997721 L5.99982661,10.4195169 L4.1476949,12.2866381 C3.7587017,12.6786875 3.12554156,12.681165 2.73349216,12.2921718 C2.37160041,11.9331011 2.34165154,11.3659829 2.64513908,10.9725012 L2.72795842,10.8779691 L4.59182661,8.9995169 L3.99982756,8.9995169 C3.49002626,8.99942894 3.06939139,8.6178712 3.00776983,8.12478363 L3.00000005,7.99934441 C3.00008797,7.48954311 3.38164571,7.06890824 3.87473329,7.00728668 L4.0001725,6.9995169 Z M13.0117991,3.02438957 C13.3700977,3.38704571 13.3943983,3.95443401 13.087008,4.34487447 L13.0032515,4.4385773 L11.4235168,5.99920956 L11.999772,6.00000005 L12.1252079,6.0078235 C12.618269,6.06965594 12.9996468,6.49045395 12.9995168,7.00025524 C12.9993859,7.51309106 12.6132378,7.93566385 12.1158844,7.99330207 L11.9992616,8.00000005 L9.19977883,7.99928554 L9.06904162,7.99212663 C8.5079985,7.93088846 8.06349163,7.48382366 8.00624177,6.92218724 L8,6.80018179 L7.99951678,4.0001725 L8.00728657,3.87473329 C8.06416801,3.41957552 8.42695428,3.0594491 8.8834035,3.00666912 L8.9993443,3.00000005 L9.12478351,3.00776983 C9.57994128,3.06465127 9.9400677,3.42743754 9.9928477,3.88388677 L9.99951678,3.99982756 L9.99951678,4.59420956 L11.5976113,3.01584205 C11.9904888,2.62768522 12.6236422,2.63151208 13.0117991,3.02438957 Z" id="形状结合" fill="#555666" fill-rule="nonzero"></path>
        </g>
    </g>
</svg>