<?xml version="1.0" encoding="UTF-8"?>
<svg width="16px" height="16px" viewBox="0 0 16 16" version="1.1" xmlns="http://www.w3.org/2000/svg" xmlns:xlink="http://www.w3.org/1999/xlink">
    <title>投票</title>
    <g id="V8" stroke="none" stroke-width="1" fill="none" fill-rule="evenodd">
        <g id="创作-富文本编辑器-投票icon" transform="translate(-1265.000000, -71.000000)">
            <g id="编组-20" transform="translate(255.000000, 62.000000)">
                <g id="投票" transform="translate(998.000000, 0.000000)">
                    <g id="投票" transform="translate(12.000000, 9.000000)">
                        <rect id="Rectangle-4" x="0" y="0" width="16" height="16"></rect>
                        <path d="M14,6 C15.1045695,6 16,6.8954305 16,8 L16,8 L16,14 C16,15.1045695 15.1045695,16 14,16 L14,16 L2,16 C0.8954305,16 0,15.1045695 0,14 L0,14 L0,8 C0,6.8954305 0.8954305,6 2,6 L2,6 L3.37703861,5.99979211 C3.37626632,6.51264649 3.57152771,7.02574127 3.96282277,7.41703633 L4.545,7.99979211 L2,8 L2,14 L14,14 L14,8 L11.373,7.99979211 L12.9635444,6.41066919 C13.08899,6.28522359 13.194298,6.14724046 13.2794584,6.00074516 L14,6 Z" id="形状结合" fill="#555666" fill-rule="nonzero"></path>
                        <path d="M7.58505822,0.995099298 L3.96282277,4.58860921 C3.18177419,5.36965779 3.18177419,6.63598775 3.96282277,7.41703633 L6.54578644,10 C7.32683502,10.7810486 8.59316498,10.7810486 9.37421356,10 L12.9635444,6.41066919 C13.7418191,5.63239444 13.7449871,4.37154223 12.970633,3.58936643 L10.4134629,1.00636784 C9.63553224,0.222213735 8.36921233,0.217168636 7.58505822,0.995099298 Z M5.37703633,6.00282277 L8.99362629,2.41493591 L11.5493308,4.99645563 L7.96,8.58578644 L5.37703633,6.00282277 Z" id="路径-29" fill="#555666" fill-rule="nonzero"></path>
                        <path d="M8.29289322,4.29289322 C8.68341751,3.90236893 9.31658249,3.90236893 9.70710678,4.29289322 C10.0675907,4.65337718 10.0953203,5.22060824 9.79029539,5.61289944 L9.70710678,5.70710678 L8.70710678,6.70710678 C8.31658249,7.09763107 7.68341751,7.09763107 7.29289322,6.70710678 C6.93240926,6.34662282 6.90467972,5.77939176 7.20970461,5.38710056 L7.29289322,5.29289322 L8.29289322,4.29289322 Z" id="路径-30" fill="#555666" fill-rule="nonzero"></path>
                        <path d="M12,10 C12.5522847,10 13,10.4477153 13,11 C13,11.5128358 12.6139598,11.9355072 12.1166211,11.9932723 L12,12 L4,12 C3.44771525,12 3,11.5522847 3,11 C3,10.4871642 3.38604019,10.0644928 3.88337887,10.0067277 L4,10 L12,10 Z" id="路径-25" fill="#555666" fill-rule="nonzero"></path>
                    </g>
                </g>
            </g>
        </g>
    </g>
</svg>