<?xml version="1.0" encoding="UTF-8"?>
<svg width="16px" height="16px" viewBox="0 0 16 16" version="1.1" xmlns="http://www.w3.org/2000/svg" xmlns:xlink="http://www.w3.org/1999/xlink">
    <title>icon_chaolian备份</title>
    <g id="icon_chaolian备份" stroke="none" stroke-width="1" fill="none" fill-rule="evenodd">
        <g id="icon_chaolian">
            <rect id="Rectangle-4" x="0" y="0" width="16" height="16"></rect>
            <path d="M8.43575036,6.15003608 C8.82627465,5.75951178 9.45943963,5.75951178 9.84996392,6.15003608 C11.4495343,7.7496065 11.5011334,10.310963 10.0047611,11.9725842 L9.84996392,12.1356782 L7.56424964,14.4213925 C5.9113602,16.0742819 3.23149694,16.0742819 1.5786075,14.4213925 C-0.0742819297,12.7685031 -0.0742819297,10.0886398 1.5786075,8.43575036 C1.9691318,8.04522607 2.60229678,8.04522607 2.99282107,8.43575036 C3.35330503,8.79623432 3.38103456,9.36346538 3.07600967,9.75575659 L2.99282107,9.84996392 C2.12098022,10.7218048 2.12098022,12.1353381 2.99282107,13.0071789 C3.82314569,13.8375036 5.14480133,13.8770428 6.02191938,13.1257967 L6.15003608,13.0071789 L8.43575036,10.7214646 C9.30759121,9.8496238 9.30759121,8.43609049 8.43575036,7.56424964 C8.04522607,7.17372535 8.04522607,6.54056037 8.43575036,6.15003608 Z M7.56424964,9.5110235 C7.17372535,9.90154779 6.54056037,9.90154779 6.15003608,9.5110235 C4.55046566,7.91145307 4.49886661,5.35009655 5.99523894,3.68847541 L6.15003608,3.52538136 L8.43575036,1.23966708 C10.0886398,-0.413222359 12.7685031,-0.413222359 14.4213925,1.23966708 C16.0742819,2.89255651 16.0742819,5.57241978 14.4213925,7.22530921 C14.0308682,7.6158335 13.3977032,7.6158335 13.0071789,7.22530921 C12.646695,6.86482525 12.6189654,6.29759419 12.9239903,5.90530298 L13.0071789,5.81109565 C13.8790198,4.9392548 13.8790198,3.52572149 13.0071789,2.65388064 C12.1768543,1.82355602 10.8551987,1.78401675 9.97808062,2.53526284 L9.84996392,2.65388064 L7.56424964,4.93959492 C6.69240879,5.81143577 6.69240879,7.22496908 7.56424964,8.09680993 C7.95477393,8.48733422 7.95477393,9.1204992 7.56424964,9.5110235 Z" id="形状结合" fill="#555666" fill-rule="nonzero"></path>
        </g>
    </g>
</svg>