<?xml version="1.0" encoding="UTF-8"?>
<svg width="16px" height="16px" viewBox="0 0 16 16" version="1.1" xmlns="http://www.w3.org/2000/svg" xmlns:xlink="http://www.w3.org/1999/xlink">
    <title>icon_beijing备份</title>
    <g id="icon_beijing备份" stroke="none" stroke-width="1" fill="none" fill-rule="evenodd">
        <g id="icon_beijing">
            <rect id="Rectangle-4" x="0" y="0" width="16" height="16"></rect>
            <path d="M13.7226499,10.4853627 C13.9268849,10.349206 14.1948594,10.3831338 14.3594684,10.5537252 L14.4160251,10.6240377 L15.4961509,12.2442263 C15.783619,12.6754286 15.9537774,13.1726434 15.9918253,13.6869875 L16,13.9083269 L16,14 C16,14.5617939 15.7090428,15.0793887 15.238324,15.3728661 L15.1055728,15.4472136 L15,15.5 C14.427714,15.786143 13.7633154,15.812156 13.1742817,15.578039 L13,15.5 L12.8944272,15.4472136 C12.3919435,15.1959717 12.0591126,14.7042563 12.0071303,14.1519855 L12,14 L12,13.9083269 C12,13.3900863 12.1342248,12.8819917 12.3878739,12.4329264 L12.5038491,12.2442263 L13.5839749,10.6240377 C13.6205923,10.5691116 13.6677238,10.5219801 13.7226499,10.4853627 Z M3.61289944,0.209704612 L3.70710678,0.292893219 L6.01421356,2.6 L7.90827783,0.707106781 C8.2687618,0.34662282 8.83599285,0.318893284 9.22828406,0.623918175 L9.3224914,0.707106781 L15.2928932,6.6775086 C15.6533772,7.03799257 15.6811067,7.60522362 15.3760818,7.99751483 L15.2928932,8.09172217 L8.09172217,15.2928932 C7.7312382,15.6533772 7.16400715,15.6811067 6.77171594,15.3760818 L6.6775086,15.2928932 L0.707106781,9.3224914 C0.34662282,8.96200743 0.318893284,8.39477638 0.623918175,8.00248517 L0.707106781,7.90827783 L4.60021356,4.015 L2.29289322,1.70710678 C1.90236893,1.31658249 1.90236893,0.683417511 2.29289322,0.292893219 C2.65337718,-0.0675907428 3.22060824,-0.0953202783 3.61289944,0.209704612 Z M8.615,2.828 L7.45521356,4.041 L7.70710678,4.29289322 C8.09763107,4.68341751 8.09763107,5.31658249 7.70710678,5.70710678 C7.34662282,6.06759074 6.77939176,6.09532028 6.38710056,5.79029539 L6.29289322,5.70710678 L6.07321356,5.488 L4.22741194,7.42207318 L13.171,7.384 L8.615,2.828 Z" id="形状" fill="#555666" fill-rule="nonzero"></path>
        </g>
    </g>
</svg>