<?xml version="1.0" encoding="UTF-8"?>
<svg width="16px" height="16px" viewBox="0 0 16 16" version="1.1" xmlns="http://www.w3.org/2000/svg" xmlns:xlink="http://www.w3.org/1999/xlink">
    <title>icon_yanse备份</title>
    <g id="icon_yanse备份" stroke="none" stroke-width="1" fill="none" fill-rule="evenodd">
        <g id="icon_yanse">
            <rect id="Rectangle-4" x="0" y="0" width="16" height="16"></rect>
            <path d="M14,14 C14.5522847,14 15,14.4477153 15,15 C15,15.5128358 14.6139598,15.9355072 14.1166211,15.9932723 L14,16 L2,16 C1.44771525,16 1,15.5522847 1,15 C1,14.4871642 1.38604019,14.0644928 1.88337887,14.0067277 L2,14 L14,14 Z M8,8.52651283e-14 C8.98350563,8.52651283e-14 9.85209252,0.621689861 10.1763898,1.53711786 L10.2278812,1.70164642 L12.9647638,11.7368826 C13.1100796,12.2697069 12.7959418,12.8194481 12.2631174,12.9647638 C11.7683519,13.0996999 11.259,12.8384744 11.0724119,12.3738591 L11.0352362,12.2631174 L9.872,8 L6.127,8 L4.96476382,12.2631174 C4.81944809,12.7959418 4.26970694,13.1100796 3.73688259,12.9647638 C3.24211713,12.8298278 2.93591302,12.346178 3.0110418,11.8511646 L3.03523618,11.7368826 L5.77211877,1.70164642 C6.04611843,0.696981021 6.9586411,8.52651283e-14 8,8.52651283e-14 Z M8,2 C7.88378601,2 7.77955362,2.06481831 7.72680298,2.16428486 L7.70164642,2.22788123 L6.672,6 L9.327,6 L8.29835358,2.22788123 C8.26166008,2.09333836 8.13945679,2 8,2 Z" id="形状" fill="#555666" fill-rule="nonzero"></path>
        </g>
    </g>
</svg>