<?xml version="1.0" encoding="UTF-8"?>
<svg width="16px" height="16px" viewBox="0 0 16 16" version="1.1" xmlns="http://www.w3.org/2000/svg" xmlns:xlink="http://www.w3.org/1999/xlink">
    <title>icon_moban备份</title>
    <g id="icon_moban备份" stroke="none" stroke-width="1" fill="none" fill-rule="evenodd">
        <g id="icon_moban">
            <rect id="Rectangle-4" x="0" y="0" width="16" height="16"></rect>
            <path d="M8,13 L8,16 L2,16 C0.945638205,16 0.0818348781,15.1841222 0.00548573643,14.1492623 L0,14 L0,13 L8,13 Z M16,9 L16,14 C16,15.0543618 15.1841222,15.9181651 14.1492623,15.9945143 L14,16 L9,16 L9,9 L16,9 Z M14,11 L11,11 L11,14 L14,14 L14,11 Z M8,9 L8,12 L2,12 C0.945638205,12 0.0818348781,11.1841222 0.00548573643,10.1492623 L0,10 L0,9 L8,9 Z M14,0 C15.0543618,0 15.9181651,0.815877791 15.9945143,1.85073766 L16,2 L16,7 L0,7 L0,2 C0,0.945638205 0.815877791,0.0818348781 1.85073766,0.00548573643 L2,0 L14,0 Z M14,2 L2,2 L2,5 L14,5 L14,2 Z" id="形状" fill="#555666" fill-rule="nonzero"></path>
        </g>
    </g>
</svg>