<?xml version="1.0" encoding="UTF-8"?>
<svg width="16px" height="16px" viewBox="0 0 16 16" version="1.1" xmlns="http://www.w3.org/2000/svg" xmlns:xlink="http://www.w3.org/1999/xlink">
    <title>icon_daimakuai备份</title>
    <g id="icon_daimakuai备份" stroke="none" stroke-width="1" fill="none" fill-rule="evenodd">
        <g id="icon_daimakuai">
            <rect id="Rectangle-4" x="0" y="0" width="16" height="16"></rect>
            <path d="M9.04825859,1.00106987 L9.16439899,1.01360608 C9.67025714,1.09791577 10.0237129,1.5481902 9.99893013,2.04825859 L9.98639392,2.16439899 L7.98639392,14.164399 C7.89559887,14.7091693 7.38037133,15.077189 6.83560101,14.9863939 C6.32974286,14.9020842 5.97628705,14.4518098 6.00106987,13.9517414 L6.01360608,13.835601 L8.01360608,1.83560101 C8.09791577,1.32974286 8.5481902,0.97628705 9.04825859,1.00106987 Z M4.51449576,2.14250707 C4.95424886,2.40635894 5.11807049,2.95484827 4.91172502,3.41103258 L4.85749293,3.51449576 L2.16619038,8 L4.85749293,12.4855042 C5.14164109,12.9590845 4.98807602,13.5733448 4.51449576,13.8574929 C4.07474265,14.1213448 3.51368894,14.0077807 3.20827713,13.6110362 L3.14250707,13.5144958 L0.451204528,9.02899151 C0.100417883,8.4443471 0.0734342951,7.72517031 0.370253763,7.11982862 L0.451204528,6.97100849 L3.14250707,2.48550424 C3.42665523,2.01192398 4.04091549,1.85835891 4.51449576,2.14250707 Z M12.7917229,2.38896384 L12.8574929,2.48550424 L15.5487955,6.97100849 C15.8995821,7.5556529 15.9265657,8.27482969 15.6297462,8.88017138 L15.5487955,9.02899151 L12.8574929,13.5144958 C12.5733448,13.988076 11.9590845,14.1416411 11.4855042,13.8574929 C11.0457511,13.5936411 10.8819295,13.0451517 11.088275,12.5889674 L11.1425071,12.4855042 L13.8338096,8 L11.1425071,3.51449576 C10.8583589,3.04091549 11.011924,2.42665523 11.4855042,2.14250707 C11.9252573,1.87865521 12.4863111,1.99221934 12.7917229,2.38896384 Z" id="形状" fill="#555666" fill-rule="nonzero"></path>
        </g>
    </g>
</svg>