<?xml version="1.0" encoding="UTF-8"?>
<svg width="16px" height="16px" viewBox="0 0 16 16" version="1.1" xmlns="http://www.w3.org/2000/svg" xmlns:xlink="http://www.w3.org/1999/xlink">
    <title>icon_zhaiyao备份</title>
    <g id="icon_zhaiyao备份" stroke="none" stroke-width="1" fill="none" fill-rule="evenodd">
        <g id="icon_zhaiyao">
            <rect id="Rectangle-4" x="0" y="0" width="16" height="16"></rect>
            <path d="M3,13 C3.55228475,13 4,13.4477153 4,14 C4,14.5128358 3.61395981,14.9355072 3.11662113,14.9932723 L3,15 L1,15 C0.44771525,15 0,14.5522847 0,14 C0,13.4871642 0.38604019,13.0644928 0.883378875,13.0067277 L1,13 L3,13 Z M10,13 C10.5522847,13 11,13.4477153 11,14 C11,14.5128358 10.6139598,14.9355072 10.1166211,14.9932723 L10,15 L7,15 C6.44771525,15 6,14.5522847 6,14 C6,13.4871642 6.38604019,13.0644928 6.88337887,13.0067277 L7,13 L10,13 Z M15,13 C15.5522847,13 16,13.4477153 16,14 C16,14.5128358 15.6139598,14.9355072 15.1166211,14.9932723 L15,15 L13,15 C12.4477153,15 12,14.5522847 12,14 C12,13.4871642 12.3860402,13.0644928 12.8833789,13.0067277 L13,13 L15,13 Z M6,9 C6.55228475,9 7,9.44771525 7,10 C7,10.5128358 6.61395981,10.9355072 6.11662113,10.9932723 L6,11 L1,11 C0.44771525,11 0,10.5522847 0,10 C0,9.48716416 0.38604019,9.06449284 0.883378875,9.00672773 L1,9 L6,9 Z M15,9 C15.5522847,9 16,9.44771525 16,10 C16,10.5128358 15.6139598,10.9355072 15.1166211,10.9932723 L15,11 L10,11 C9.44771525,11 9,10.5522847 9,10 C9,9.48716416 9.38604019,9.06449284 9.88337887,9.00672773 L10,9 L15,9 Z M9,5 C9.55228475,5 10,5.44771525 10,6 C10,6.51283584 9.61395981,6.93550716 9.11662113,6.99327227 L9,7 L1,7 C0.44771525,7 0,6.55228475 0,6 C0,5.48716416 0.38604019,5.06449284 0.883378875,5.00672773 L1,5 L9,5 Z M15,5 C15.5522847,5 16,5.44771525 16,6 C16,6.51283584 15.6139598,6.93550716 15.1166211,6.99327227 L15,7 L13,7 C12.4477153,7 12,6.55228475 12,6 C12,5.48716416 12.3860402,5.06449284 12.8833789,5.00672773 L13,5 L15,5 Z M0.775179089,0.528777191 C1.52722808,-0.0987930428 2.64753688,-0.0595699032 3.35355339,0.646446609 C4.10110029,1.39399351 4.10110029,2.60600649 3.35355339,3.35355339 C2.60600649,4.10110029 1.39399351,4.10110029 0.646446609,3.35355339 C-0.101100286,2.60600649 -0.101100286,1.39399351 0.646446609,0.646446609 L0.646446609,0.646446609 Z M15,1 C15.5522847,1 16,1.44771525 16,2 C16,2.51283584 15.6139598,2.93550716 15.1166211,2.99327227 L15,3 L6,3 C5.44771525,3 5,2.55228475 5,2 C5,1.48716416 5.38604019,1.06449284 5.88337887,1.00672773 L6,1 L15,1 Z M2.64644661,1.35355339 C2.28942401,0.996530787 1.71057599,0.996530787 1.35355339,1.35355339 C0.996530787,1.71057599 0.996530787,2.28942401 1.35355339,2.64644661 C1.71057599,3.00346921 2.28942401,3.00346921 2.64644661,2.64644661 C3.00346921,2.28942401 3.00346921,1.71057599 2.64644661,1.35355339 Z" id="形状结合" fill="#555666" fill-rule="nonzero"></path>
        </g>
    </g>
</svg>