<?xml version="1.0" encoding="UTF-8"?>
<svg width="16px" height="16px" viewBox="0 0 16 16" version="1.1" xmlns="http://www.w3.org/2000/svg" xmlns:xlink="http://www.w3.org/1999/xlink">
    <title>icon_yinyong备份</title>
    <g id="icon_yinyong备份" stroke="none" stroke-width="1" fill="none" fill-rule="evenodd">
        <g id="icon_yinyong">
            <rect id="Rectangle-4" x="0" y="0" width="16" height="16"></rect>
            <path d="M4.01813834,2.5676481 C4.41537207,2.17041436 5.03776677,2.10878514 5.50519044,2.42040092 C6.04674958,2.78144035 6.19308972,3.51314106 5.83205029,4.0547002 L5.83205029,4.0547002 L5.66410059,4.30662475 C5.23107351,4.95616537 5,5.71934934 5,6.5 L5,6.5 L5,7 L5.14926234,7.00548574 C6.18412221,7.08183488 7,7.9456382 7,9 L7,9 L7,10 C7,11.6568542 5.65685425,13 4,13 C2.34314575,13 1,11.6568542 1,10 L1,10 L1,8.32455532 C1,8.00210903 1.05198364,7.68177143 1.15395011,7.37587202 L1.15395011,7.37587202 L1.5513167,6.18377223 C1.9292239,5.05005064 2.56590102,4.01988541 3.41092721,3.17485923 L3.41092721,3.17485923 Z M12.0181383,2.5676481 C12.4153721,2.17041436 13.0377668,2.10878514 13.5051904,2.42040092 C14.0467496,2.78144035 14.1930897,3.51314106 13.8320503,4.0547002 L13.8320503,4.0547002 L13.6641006,4.30662475 C13.2310735,4.95616537 13,5.71934934 13,6.5 L13,6.5 L13,7 L13.1492623,7.00548574 C14.1841222,7.08183488 15,7.9456382 15,9 L15,9 L15,10 C15,11.6568542 13.6568542,13 12,13 C10.3431458,13 9,11.6568542 9,10 L9,10 L9,8.32455532 C9,8.00210903 9.05198364,7.68177143 9.15395011,7.37587202 L9.15395011,7.37587202 L9.5513167,6.18377223 C9.9292239,5.05005064 10.565901,4.01988541 11.4109272,3.17485923 L11.4109272,3.17485923 Z" id="形状结合" fill="#555666" fill-rule="nonzero"></path>
        </g>
    </g>
</svg>