<?xml version="1.0" encoding="UTF-8"?>
<svg width="16px" height="16px" viewBox="0 0 16 16" version="1.1" xmlns="http://www.w3.org/2000/svg" xmlns:xlink="http://www.w3.org/1999/xlink">
    <title>icon_shipin备份</title>
    <g id="icon_shipin备份" stroke="none" stroke-width="1" fill="none" fill-rule="evenodd">
        <g id="编组备份">
            <rect id="Rectangle-4" x="0" y="0" width="16" height="16"></rect>
            <path d="M11,1 C12.1045695,1 13,1.8954305 13,3 L13,3 L13,3.133 L13.0869415,3.08191994 C13.3283089,2.94891744 13.5950037,2.86816873 13.86961,2.84494701 L13.86961,2.84494701 L14.0351838,2.8379594 C15.1203218,2.8379594 16,3.71763759 16,4.80277564 L16,4.80277564 L16,10.6125741 C16,10.8275383 15.9653442,11.0410967 15.8973666,11.2450296 C15.5480711,12.2929163 14.4154311,12.8592363 13.3675445,12.5099407 L13.3675445,12.5099407 L13,12.387 L13,13 C13,14.0543618 12.1841222,14.9181651 11.1492623,14.9945143 L11.1492623,14.9945143 L11,15 L2,15 C0.8954305,15 0,14.1045695 0,13 L0,13 L0,3 C0,1.8954305 0.8954305,1 2,1 L2,1 Z M11,3 L2,3 L2,13 L11,13 L11,11.1387426 C11,10.5312294 11.4924868,10.0387426 12.1,10.0387426 C12.2061753,10.0444608 12.2486454,10.0467481 12.3025461,10.0577973 L12.3025461,10.0577973 L12.4478505,10.095191 L14,10.6125741 L14,4.868 L12.7101702,5.72840361 C12.2407945,6.04132077 11.6183921,5.94589688 11.262061,5.52595155 L11.262061,5.52595155 L11.1847447,5.42331851 C11.0642818,5.24262424 11,5.03031577 11,4.81314829 L11,4.81314829 L11,3 Z M6.52187726,5.2274797 L6.62469505,5.29975604 L9.02391399,7.21913119 C9.08157869,7.26526295 9.13395599,7.31764025 9.18008775,7.37530495 C9.4985581,7.77339289 9.46347785,8.34021683 9.11699725,8.69642431 L9.02391399,8.78086881 L6.62469505,10.700244 C6.447382,10.8420944 6.2270715,10.9193752 6,10.9193752 C5.48716416,10.9193752 5.06449284,10.533335 5.00672773,10.0359963 L5,9.91937515 L5,6.08062485 C5,5.85355335 5.07728075,5.63324285 5.21913119,5.4559298 C5.53760154,5.05784186 6.09830105,4.96764173 6.52187726,5.2274797 Z" id="形状结合" fill="#555666" fill-rule="nonzero"></path>
        </g>
    </g>
</svg>