<?xml version="1.0" encoding="UTF-8"?>
<svg width="16px" height="16px" viewBox="0 0 16 16" version="1.1" xmlns="http://www.w3.org/2000/svg" xmlns:xlink="http://www.w3.org/1999/xlink">
    <title>icon_gongshi备份</title>
    <g id="icon_gongshi备份" stroke="none" stroke-width="1" fill="none" fill-rule="evenodd">
        <g id="icon_gongshi">
            <rect id="Rectangle-4" x="0" y="0" width="16" height="16"></rect>
            <path d="M12.1897904,0 C12.8856283,0 13.5272549,0.361197648 13.8897665,0.94635461 L13.968366,1.08530397 L14.8892878,2.87598532 C15.1418741,3.36712541 14.9484881,3.9700348 14.457348,4.22262114 C14.0012894,4.45716559 13.4488582,4.30717264 13.1700315,3.89131418 L13.1107122,3.79068135 L12.1897904,2 L4.17422064,2 L8.20143543,6.69841725 C8.80565415,7.4033391 8.84119643,8.4238116 8.30806226,9.16585706 L8.20143543,9.30158275 L4.17422064,14 L12.1897904,14 L13.1107122,12.2093187 C13.3632985,11.7181786 13.9662079,11.5247925 14.457348,11.7773789 C14.9134067,12.0119233 15.1127284,12.548532 14.9366414,13.017228 L14.8892878,13.1240147 L13.968366,14.914696 C13.6501259,15.5334962 13.0354706,15.9388939 12.3493036,15.9936507 L12.1897904,16 L4.17422064,16 C3.69679809,16 3.23512411,15.8292157 2.87263789,15.5185132 C2.07591879,14.8356111 1.94842926,13.6619695 2.55399124,12.8272737 L2.65570743,12.6984173 L6.68292222,8 L2.65570743,3.30158275 C2.34500496,2.93909653 2.17418438,2.47742254 2.17418438,2 C2.17418438,0.945638205 2.99009843,0.0818348781 4.02495829,0.00548573643 L4.17422064,0 L12.1897904,0 Z" id="路径-19" fill="#555666" fill-rule="nonzero"></path>
        </g>
    </g>
</svg>